<svg width="280" height="119" viewBox="0 0 280 119" fill="none" xmlns="http://www.w3.org/2000/svg">
<g clip-path="url(#clip0_222_13)">
<path d="M21.1962 15.0466C26.4115 15.0466 30.8134 17.1056 34.4019 21.118C37.9904 25.1832 39.8086 30.3571 39.8086 36.587C39.8086 42.8168 37.9904 47.9907 34.4019 52.0559C30.8134 56.1211 26.4115 58.1273 21.1962 58.1273C16.4593 58.1273 12.6794 56.2267 9.76077 52.4255V56.913H0V0H9.76077V20.7484C12.6316 16.9472 16.4593 15.0466 21.1962 15.0466ZM12.4402 45.087C14.5455 47.146 16.9856 48.2019 19.8086 48.2019C22.6316 48.2019 25.0239 47.1988 27.0335 45.1397C29.0431 43.0807 30.0478 40.2826 30.0478 36.587C30.0478 32.9441 29.0431 30.0932 26.9856 28.0342C24.9761 25.9752 22.5359 24.972 19.7129 24.972C16.89 24.972 14.4498 25.9752 12.3923 28.0342C10.3349 30.0404 9.33014 32.8913 9.33014 36.4814C9.2823 40.177 10.3349 43.0279 12.4402 45.087Z" fill="#D9D9D9" fill-opacity="0.51"/>
<path d="M57.3206 16.2607H47.4641V56.9129H57.3206V16.2607Z" fill="#D9D9D9" fill-opacity="0.51"/>
<path d="M90.6698 45.1394L96.7463 52.2668C93.3492 56.1736 89.4257 58.1798 84.8803 58.1798C79.9042 58.1798 76.0286 56.6487 73.2535 53.5866C70.4784 50.5245 69.0908 46.4065 69.0908 41.1798V27.1891L71.6267 21.1705L69.0908 16.3133V5.38477H78.9473V41.1798C78.9473 45.6674 81.0525 47.8848 85.2152 47.8848C87.2248 47.8848 89.043 46.9873 90.6698 45.1394Z" fill="#D9D9D9" fill-opacity="0.51"/>
<path d="M115.455 58.2333C109.091 58.2333 103.923 55.6464 100.096 50.5253L106.651 44.8234C110.048 47.9383 113.206 49.5222 116.22 49.5222C117.99 49.5222 119.378 49.1526 120.335 48.3607C121.292 47.5687 121.77 46.6184 121.77 45.4569C121.77 44.5594 121.388 43.8203 120.622 43.1867C119.856 42.5532 119.091 42.0781 118.325 41.8669C117.56 41.6029 116.316 41.1805 114.641 40.6526C112.775 40.019 111.244 39.5439 110.144 39.1743C108.995 38.8048 107.703 38.1712 106.22 37.2209C104.737 36.3234 103.636 35.1091 102.967 33.6308C102.249 32.1526 101.914 30.3048 101.914 28.1402C101.914 24.0749 103.206 20.8544 105.837 18.4787C108.469 16.1029 111.722 14.9414 115.742 14.9414C121.962 14.9414 126.746 17.4228 130.191 22.4383L123.732 28.2458C121.483 25.2892 118.852 23.7582 115.885 23.7582C114.354 23.7582 113.158 24.1277 112.297 24.9197C111.435 25.7116 111.005 26.6619 111.005 27.7178C111.005 28.6153 111.388 29.3545 112.105 30.0408C112.823 30.6743 113.589 31.1495 114.354 31.3607C115.12 31.5718 116.364 31.9414 118.038 32.4694C119.522 32.9445 120.67 33.2613 121.483 33.5253C122.297 33.7892 123.349 34.2116 124.737 34.8451C126.077 35.4787 127.129 36.2178 127.799 36.9569C128.469 37.7489 129.091 38.752 129.665 40.0718C130.239 41.3917 130.478 42.87 130.478 44.5594C130.478 48.6246 129.139 51.9507 126.411 54.4849C123.636 56.9662 120 58.2333 115.455 58.2333Z" fill="#D9D9D9" fill-opacity="0.51"/>
<path d="M165.263 29.6712C162.584 26.609 159.474 25.078 156.077 25.078C153.254 25.078 150.861 26.1339 148.9 28.2985C146.938 30.4103 145.933 33.314 145.933 36.9041C145.933 40.2302 146.938 42.9227 148.995 44.9289C151.005 46.9879 153.493 47.991 156.364 47.991C159.904 47.991 163.062 46.5128 165.742 43.609L171.914 49.9972C167.656 55.4351 162.392 58.1277 156.077 58.1277C150.287 58.1277 145.55 56.1215 141.818 52.0562C138.086 48.0438 136.22 42.8699 136.22 36.6401C136.22 30.4103 138.086 25.2364 141.866 21.1184C145.646 17.0004 150.431 14.9941 156.172 14.9941C162.392 14.9941 167.512 17.6339 171.531 22.9134L165.263 29.6712Z" fill="#D9D9D9" fill-opacity="0.51"/>
<path d="M204.976 16.2612H214.737V56.9133H204.976V52.4258C202.105 56.227 198.278 58.1276 193.541 58.1276C188.325 58.1276 183.923 56.1214 180.335 52.0562C176.746 47.991 174.928 42.8699 174.928 36.5873C174.928 30.3574 176.746 25.1835 180.335 21.1183C183.923 17.0531 188.325 15.0469 193.541 15.0469C198.278 15.0469 202.057 16.9475 204.976 20.7487V16.2612ZM187.703 45.14C189.713 47.1991 192.105 48.2022 194.928 48.2022C197.751 48.2022 200.191 47.1463 202.297 45.0873C204.402 43.0282 205.407 40.1773 205.407 36.5873C205.407 32.9444 204.354 30.0935 202.344 28.0345C200.287 26.0282 197.847 24.9723 195.024 24.9723C192.201 24.9723 189.761 25.9754 187.751 28.0345C185.742 30.0935 184.689 32.8916 184.689 36.5873C184.689 40.2829 185.694 43.081 187.703 45.14Z" fill="#D9D9D9" fill-opacity="0.51"/>
<path d="M234.785 0H224.928V56.913H234.785V0Z" fill="#D9D9D9" fill-opacity="0.51"/>
<path d="M280 35.0563C280 36.7985 279.856 38.4879 279.617 40.1246L252.057 40.2302C252.727 43.0283 254.019 45.2457 255.885 46.9879C257.751 48.7302 260.096 49.5749 262.919 49.5749C266.172 49.5749 269.617 48.0966 273.254 45.1929L278.517 51.4755C274.402 55.8575 269.091 58.0749 262.584 58.0749C256.603 58.0749 251.77 56.0687 248.038 52.0035C244.306 47.9382 242.44 42.7115 242.44 36.3761C242.44 30.0935 244.258 24.9196 247.943 20.96C251.579 17.0004 256.268 14.9941 262.01 14.9941C267.464 14.9941 271.866 16.7892 275.12 20.432C278.325 24.1277 280 28.9848 280 35.0563ZM261.962 23.5997C259.617 23.5997 257.56 24.3389 255.789 25.7643C254.019 27.2426 252.823 29.196 252.201 31.7302H270.909C270.431 29.1432 269.378 27.137 267.799 25.7115C266.124 24.2861 264.211 23.5997 261.962 23.5997Z" fill="#D9D9D9" fill-opacity="0.51"/>
<path d="M91.2918 16.2607H69.1387V27.1365H91.2918V16.2607Z" fill="url(#paint0_linear_222_13)"/>
<path d="M136.172 95.137C136.172 87.6401 141.292 82.1494 147.847 82.1494C152.966 82.1494 157.273 85.5811 158.708 90.9662H156.411C155.215 87.0594 151.914 84.4196 147.895 84.4196C142.536 84.4196 138.421 88.96 138.421 95.137C138.421 101.314 142.536 105.854 147.847 105.854C151.914 105.854 155.215 103.162 156.411 99.3078H158.708C157.32 104.746 152.919 108.125 147.847 108.125C141.292 108.125 136.172 102.634 136.172 95.137Z" fill="#D9D9D9" fill-opacity="0.57"/>
<path d="M185.311 82.6246V107.649H183.11V101.684C181.34 105.538 177.895 108.125 173.636 108.125C167.273 108.125 162.871 102.634 162.871 95.137C162.871 87.6401 167.32 82.1494 173.588 82.1494C177.895 82.1494 181.34 84.7364 183.11 88.6432V82.6246H185.311ZM183.158 95.137C183.158 88.96 179.139 84.4196 173.923 84.4196C168.708 84.4196 165.072 88.9072 165.072 95.137C165.072 101.314 168.708 105.802 173.923 105.802C179.186 105.802 183.158 101.367 183.158 95.137Z" fill="#D9D9D9" fill-opacity="0.57"/>
<path d="M214.737 95.1364C214.737 102.633 210.335 108.124 204.019 108.124C199.713 108.124 196.268 105.537 194.498 101.63V119H192.297V82.624H194.498V88.6426C196.268 84.7358 199.713 82.1488 204.019 82.1488C210.287 82.096 214.737 87.6395 214.737 95.1364ZM212.536 95.1364C212.536 88.9594 208.947 84.419 203.684 84.419C198.469 84.419 194.45 88.9066 194.45 95.1364C194.45 101.366 198.469 105.801 203.684 105.801C208.9 105.801 212.536 101.313 212.536 95.1364Z" fill="#D9D9D9" fill-opacity="0.57"/>
<path d="M222.631 82.624H220.43V107.649H222.631V82.624Z" fill="#D9D9D9" fill-opacity="0.57"/>
<path d="M245.407 106.699C244.258 107.332 241.962 108.177 239.617 108.177C234.593 108.177 231.675 104.482 231.675 98.1461V84.8946H227.129V82.6244H231.675V76.3418H233.876V82.6244H244.976V84.8946H233.876V98.0406C233.876 102.95 235.837 105.854 240 105.854C241.722 105.854 243.445 105.379 245.024 104.64L245.407 106.699Z" fill="#D9D9D9" fill-opacity="0.57"/>
<path d="M270.813 82.6246V107.649H268.612V101.684C266.842 105.538 263.397 108.125 259.139 108.125C252.775 108.125 248.373 102.634 248.373 95.137C248.373 87.6401 252.823 82.1494 259.091 82.1494C263.397 82.1494 266.842 84.7364 268.612 88.6432V82.6246H270.813ZM268.708 95.137C268.708 88.96 264.689 84.4196 259.474 84.4196C254.258 84.4196 250.622 88.9072 250.622 95.137C250.622 101.314 254.258 105.802 259.474 105.802C264.689 105.802 268.708 101.367 268.708 95.137Z" fill="#D9D9D9" fill-opacity="0.57"/>
<path d="M280 72.5928H277.751V107.596H280V72.5928Z" fill="#D9D9D9" fill-opacity="0.57"/>
<path d="M91.2439 16.2607H81.3875V27.1365H91.2439V16.2607Z" fill="#D9D9D9" fill-opacity="0.57"/>
</g>
<defs>
<linearGradient id="paint0_linear_222_13" x1="69.2267" y1="21.7242" x2="88.5917" y2="21.7242" gradientUnits="userSpaceOnUse">
<stop stop-color="#FFFFFE" stop-opacity="0.62"/>
<stop offset="1" stop-color="#D9D9D9"/>
</linearGradient>
<clipPath id="clip0_222_13">
<rect width="280" height="119" fill="white"/>
</clipPath>
</defs>
</svg>
