<svg width="359" height="199" viewBox="0 0 359 199" fill="none" xmlns="http://www.w3.org/2000/svg">
<path d="M58.8022 171.205L44.6038 178.853V178.088C41.8667 178.956 38.8329 179.457 35.9613 179.618C22.6078 179.457 12.0087 170.799 11.8858 160.498V156.675C16.2714 164.574 25.2 169.869 35.9613 169.676C39.6009 169.869 43.326 169.153 46.4558 168.146L47.6904 164.322C43.9788 165.695 39.9274 166.649 35.9613 166.617C22.6078 166.649 12.0087 157.991 11.8858 147.497V144.438C16.2714 151.742 25.1808 157.037 35.9613 156.675C40.8106 157.037 45.5533 155.773 49.5424 153.615L50.1597 149.792C46.2638 152.338 41.2138 153.817 35.9613 153.615C22.6078 153.817 12.0087 145.159 11.8858 134.496V131.437C16.2714 138.91 25.2 144.205 35.9613 144.438C42.0779 144.205 47.8767 142.201 52.629 139.085L53.2463 134.496C48.9328 138.456 42.6347 141.009 35.9613 141.379C22.6078 141.009 12.0087 132.351 11.8858 121.495C12.0087 111.171 22.6078 102.512 35.9613 102.376C43.9212 102.512 51.3137 105.971 55.7156 111.553L56.1443 112.438L59.2571 112.453L58.8022 111.553C54.4243 104.182 45.6685 99.3164 35.9613 99.3164C21.1869 99.3164 9.4165 109.406 9.4165 121.495V122.26V161.263C9.93494 173.065 21.4365 182.677 35.9613 182.677C45.5533 182.677 54.1747 178.002 58.8022 171.205Z" fill="#D9D9D9" fill-opacity="0.69"/>
<path d="M53.027 198.114L58.011 171.871L43.6819 179.589L52.404 134.05H35.5828L39.9438 111.666H93.5225L89.1614 134.05H71.7172L67.9792 146.4L87.2924 136.365L53.027 198.114ZM61.7491 166.468L59.2571 181.905L79.8163 143.312L62.9951 152.574L70.4712 130.962H87.2924L90.4074 114.753H41.8128L38.6978 130.962H55.519L47.4199 174.186L61.7491 166.468Z" fill="#D9D9D9" fill-opacity="0.69"/>
<path d="M129.104 126.644L129.13 126.739C129.164 129.198 128.559 131.124 127.315 132.517C126.072 133.91 124.355 134.607 122.166 134.607C119.935 134.607 118.133 133.717 116.762 131.939C115.391 130.161 114.705 127.863 114.705 125.046V120.471C114.705 117.664 115.373 115.366 116.711 113.578C118.048 111.789 119.803 110.895 121.975 110.895C124.24 110.895 126.012 111.58 127.29 112.952C128.567 114.324 129.189 116.255 129.155 118.746L129.13 118.841H125.501C125.501 117.363 125.214 116.263 124.639 115.54C124.064 114.818 123.176 114.456 121.975 114.456C120.859 114.456 119.988 115.013 119.362 116.126C118.736 117.239 118.423 118.677 118.423 120.439V125.046C118.423 126.819 118.753 128.264 119.413 129.383C120.073 130.502 120.991 131.061 122.166 131.061C123.282 131.061 124.115 130.699 124.664 129.977C125.214 129.254 125.488 128.143 125.488 126.644H129.104ZM149.592 124.824C149.592 127.663 148.872 130.003 147.433 131.844C145.993 133.686 144.119 134.607 141.811 134.607C139.511 134.607 137.646 133.683 136.215 131.836C134.784 129.99 134.068 127.652 134.068 124.824V120.677C134.068 117.859 134.782 115.525 136.208 113.673C137.635 111.821 139.494 110.895 141.785 110.895C144.094 110.895 145.972 111.821 147.42 113.673C148.868 115.525 149.592 117.859 149.592 120.677V124.824ZM145.874 120.645C145.874 118.851 145.512 117.379 144.788 116.229C144.064 115.079 143.063 114.504 141.785 114.504C140.525 114.504 139.543 115.079 138.84 116.229C138.138 117.379 137.786 118.851 137.786 120.645V124.824C137.786 126.65 138.14 128.138 138.847 129.288C139.554 130.438 140.542 131.013 141.811 131.013C143.089 131.013 144.085 130.438 144.801 129.288C145.516 128.138 145.874 126.65 145.874 124.824V120.645ZM159.271 134.274H155.54V111.227H159.271V134.274ZM180.742 134.274H177.012L169.512 118.73L169.435 118.746V134.274H165.704V111.227H169.435L176.935 126.755L177.012 126.739V111.227H180.742V134.274ZM199.505 114.788H194.19V134.274H190.46V114.788H185.221V111.227H199.505V114.788ZM214.921 124.143H208.022V130.728H216.224V134.274H204.291V111.227H216.199V114.788H208.022V120.582H214.921V124.143ZM225.315 130.728H233.646V134.274H221.584V111.227H225.315V130.728ZM249.495 124.143H242.596V130.728H250.799V134.274H238.865V111.227H250.773V114.788H242.596V120.582H249.495V124.143ZM270.418 131.124C269.839 132.063 268.974 132.879 267.824 133.57C266.674 134.261 265.192 134.607 263.378 134.607C261.129 134.607 259.289 133.731 257.858 131.979C256.427 130.227 255.712 127.953 255.712 125.157V120.345C255.712 117.559 256.406 115.287 257.795 113.53C259.183 111.773 260.967 110.895 263.148 110.895C265.422 110.895 267.164 111.562 268.373 112.897C269.583 114.232 270.166 116.013 270.124 118.239L270.098 118.334H266.585C266.585 117.11 266.299 116.158 265.729 115.477C265.158 114.796 264.328 114.456 263.237 114.456C262.096 114.456 261.176 115.002 260.478 116.094C259.779 117.187 259.43 118.593 259.43 120.313V125.157C259.43 126.898 259.788 128.317 260.503 129.415C261.219 130.512 262.177 131.061 263.378 131.061C264.264 131.061 264.964 130.95 265.48 130.728C265.995 130.507 266.393 130.227 266.674 129.889V125.426H263.097V122.228H270.418V131.124ZM280.058 125.062V134.274H276.328V111.227H282.767C284.888 111.227 286.547 111.826 287.743 113.024C288.94 114.221 289.538 115.891 289.538 118.033C289.538 119.215 289.285 120.236 288.778 121.096C288.271 121.956 287.533 122.65 286.562 123.178C287.66 123.579 288.45 124.249 288.932 125.188C289.413 126.127 289.653 127.288 289.653 128.671V130.364C289.653 131.008 289.724 131.681 289.864 132.383C290.005 133.084 290.245 133.604 290.586 133.942V134.274H286.74C286.4 133.936 286.18 133.377 286.082 132.596C285.984 131.815 285.935 131.061 285.935 130.333V128.702C285.935 127.552 285.682 126.658 285.175 126.019C284.668 125.381 283.951 125.062 283.022 125.062H280.058ZM280.058 121.5H282.703C283.751 121.5 284.53 121.226 285.041 120.677C285.552 120.128 285.808 119.316 285.808 118.239C285.808 117.184 285.55 116.345 285.035 115.722C284.519 115.1 283.763 114.788 282.767 114.788H280.058V121.5ZM305.44 129.304H299.409L298.157 134.274H294.26L300.533 111.227H304.354L310.601 134.274H306.704L305.44 129.304ZM300.329 125.679H304.532L302.475 117.559H302.399L300.329 125.679ZM318.862 125.916V134.274H315.131V111.227H322.248C324.386 111.227 326.068 111.902 327.294 113.253C328.521 114.604 329.134 116.382 329.134 118.587C329.134 120.793 328.521 122.566 327.294 123.906C326.068 125.246 324.386 125.916 322.248 125.916H318.862ZM318.862 122.355H322.248C323.287 122.355 324.075 122.004 324.611 121.302C325.148 120.6 325.416 119.706 325.416 118.619C325.416 117.511 325.15 116.596 324.618 115.873C324.085 115.15 323.295 114.788 322.248 114.788H318.862V122.355ZM349.584 134.274H345.853V124.698H338.277V134.274H334.546V111.227H338.277V121.136H345.853V111.227H349.584V134.274Z" fill="#D9D9D9" fill-opacity="0.55"/>
</svg>
