<svg width="305" height="129" viewBox="0 0 305 129" fill="none" xmlns="http://www.w3.org/2000/svg">
<path fill-rule="evenodd" clip-rule="evenodd" d="M147.314 73.4138C148.206 72.7734 149.031 71.9855 149.77 71.0697L151.9 73.8912C151.43 74.5522 150.92 75.1608 150.373 75.7104C149.838 76.2411 149.264 76.7008 148.659 77.0826C148.021 77.4834 147.346 77.7808 146.651 77.9682C145.858 78.174 145.05 78.2732 144.241 78.2641C142.926 78.2811 141.621 77.9446 140.41 77.2753C139.267 76.6466 138.231 75.7272 137.362 74.5711C136.493 73.415 135.809 72.0448 135.348 70.5401C134.854 68.9632 134.605 67.2735 134.615 65.5695V65.4989C134.604 63.8033 134.847 62.1213 135.333 60.5489C135.799 59.0301 136.49 57.6469 137.367 56.4785C138.243 55.3101 139.287 54.3797 140.44 53.7407C141.685 53.0553 143.026 52.7134 144.377 52.7364C145.167 52.7299 145.956 52.8245 146.732 53.0189C147.405 53.1917 148.061 53.4581 148.69 53.8135C149.268 54.1445 149.817 54.5512 150.332 55.0275C150.837 55.4999 151.315 56.0192 151.763 56.5812L149.634 59.7854C148.915 58.9069 148.107 58.1604 147.234 57.5664C146.338 56.9857 145.347 56.6951 144.347 56.7189C143.488 56.7081 142.637 56.9436 141.856 57.4089C141.107 57.8532 140.433 58.4869 139.872 59.2734C139.307 60.0785 138.867 61.0194 138.576 62.044C138.267 63.125 138.112 64.2708 138.119 65.4247V65.4954C138.112 66.6559 138.267 67.8085 138.576 68.8966C138.865 69.9316 139.305 70.8835 139.872 71.6996C140.428 72.5001 141.103 73.1434 141.856 73.5903C142.639 74.0503 143.488 74.2833 144.347 74.2732C145.375 74.3114 146.394 74.0162 147.314 73.4138ZM82.0035 73.4138C82.8961 72.7748 83.7214 71.9869 84.4587 71.0697L86.5876 73.8912C86.1189 74.5525 85.6085 75.1611 85.0615 75.7104C84.5272 76.2413 83.9535 76.701 83.3492 77.0826C82.7095 77.4834 82.0349 77.7808 81.3401 77.9682C80.5466 78.174 79.7388 78.2732 78.9299 78.2641C77.6143 78.2811 76.3101 77.9446 75.0982 77.2753C73.9569 76.6436 72.9223 75.7234 72.0538 74.5675C71.1851 73.4117 70.4996 72.0431 70.0366 70.5401C69.5425 68.9632 69.2932 67.2735 69.3036 65.5695V65.4989C69.2923 63.8032 69.5365 62.1213 70.0221 60.5489C70.4883 59.0303 71.1793 57.6471 72.0557 56.4787C72.932 55.3104 73.9762 54.3799 75.1285 53.7407C76.3739 53.0553 77.7142 52.7134 79.0654 52.7365C79.8574 52.7302 80.648 52.8248 81.426 53.019C82.0967 53.1926 82.7512 53.459 83.3788 53.8135C83.9563 54.1442 84.5065 54.5509 85.0211 55.0275C85.526 55.4999 86.0045 56.0192 86.4526 56.5812L84.323 59.7854C83.6037 58.9066 82.7962 58.16 81.9225 57.5664C81.0261 56.9857 80.036 56.6951 79.0356 56.7189C78.1767 56.708 77.3266 56.9436 76.5449 57.4089C75.7958 57.8529 75.1216 58.4866 74.5613 59.2734C73.9957 60.0783 73.5555 61.0193 73.2648 62.044C72.9559 63.125 72.8009 64.2708 72.8078 65.4247V65.4954C72.8011 66.656 72.9559 67.8085 73.2648 68.8966C73.5542 69.9318 73.9944 70.8838 74.5613 71.6996C75.1166 72.5005 75.7918 73.1439 76.5449 73.5903C77.3276 74.0505 78.1774 74.2833 79.0356 74.2732C80.0641 74.3112 81.0837 74.016 82.0035 73.4138ZM20.684 67.3273V73.9256H31.4939V77.8383H17.3948V53.1595H31.3599V57.0727H20.684V63.4147H30.1498V67.3273H20.684ZM38.7221 53.1623V73.9256H48.6443V77.8383H35.4327V53.1623H38.7221ZM55.3889 73.9256V67.3273H64.8547V63.4147H55.3889V57.0727H66.0648V53.1595H52.0975V77.8383H66.1965V73.9256H55.3889ZM88.6623 53.1595V57.178H94.6481V77.8383H97.9925V57.178H103.978V53.1595H88.6623ZM120.202 67.4919C119.632 67.9343 119.019 68.2722 118.379 68.4961L123.479 77.8383H119.567L114.911 69.232L112.933 65.3915H115.614C116.631 65.4642 117.634 65.0694 118.451 64.2756C118.798 63.9158 119.074 63.4541 119.258 62.9281C119.443 62.4021 119.529 61.8267 119.511 61.2487V61.1781C119.539 60.5981 119.46 60.0178 119.282 59.4856C119.103 58.9533 118.83 58.4847 118.484 58.1187C117.634 57.3599 116.614 56.9927 115.587 57.0748H110.746V77.8383H107.457V53.1609H115.873C116.945 53.1371 118.012 53.3572 119.027 53.8113C119.881 54.1951 120.662 54.8154 121.317 55.6299C121.822 56.3038 122.217 57.1059 122.476 57.9866C122.754 58.9328 122.892 59.9393 122.883 60.9528V61.0185C122.892 61.9471 122.778 62.8708 122.547 63.7488C122.334 64.5326 122.018 65.2616 121.613 65.9028C121.213 66.5318 120.737 67.0689 120.202 67.4919ZM127.118 53.1595V77.8383H130.407V53.1595H127.118Z" fill="#D9D9D9" fill-opacity="0.53"/>
<path fill-rule="evenodd" clip-rule="evenodd" d="M185.228 71.0686C184.49 71.9856 183.666 72.7736 182.772 73.4126C181.854 74.0157 180.836 74.3111 179.81 74.2722C178.95 74.2823 178.099 74.0493 177.314 73.5893C176.561 73.1415 175.887 72.4983 175.331 71.6986C174.763 70.8828 174.323 69.9309 174.033 68.8955C173.728 67.8064 173.574 66.6546 173.578 65.4943V65.4237C173.574 64.2701 173.728 63.1249 174.033 62.0429C174.325 61.0181 174.765 60.0771 175.331 59.2724C175.892 58.4866 176.565 57.8531 177.314 57.4079C178.097 56.9425 178.95 56.707 179.81 56.7179C180.808 56.6949 181.796 56.9855 182.692 57.5654C183.567 58.1578 184.374 58.9045 185.092 59.7844L187.221 56.5802C186.774 56.0182 186.299 55.499 185.796 55.0264C185.279 54.55 184.727 54.1433 184.148 53.8124C183.521 53.4579 182.866 53.1916 182.194 53.0179C181.417 52.8235 180.627 52.7288 179.835 52.7354C178.483 52.7129 177.144 53.0548 175.897 53.7397C174.745 54.3787 173.702 55.3091 172.824 56.4775C171.948 57.6459 171.257 59.0291 170.79 60.5478C170.309 62.1202 170.066 63.8 170.075 65.4936V65.5642C170.067 67.2679 170.317 68.957 170.809 70.5348C171.278 72.0388 171.964 73.4098 172.832 74.5716C173.702 75.7235 174.736 76.6406 175.875 77.2702C177.086 77.94 178.388 78.2767 179.702 78.2589C180.512 78.2682 181.322 78.169 182.116 77.9629C182.809 77.7736 183.483 77.4758 184.12 77.0759C184.723 76.6914 185.298 76.2319 185.833 75.7037C186.378 75.1541 186.888 74.5455 187.355 73.8845L185.228 71.0686ZM200.543 52.9816H197.468L189.165 77.8377H192.565L194.503 71.8771L195.718 68.0358L198.952 58.1619L202.217 68.0365L203.433 71.8777L205.346 77.8384H208.851L200.543 52.9816ZM224.749 55.4109C225.364 56.1357 225.85 57.0275 226.175 58.024C226.519 59.0943 226.689 60.2461 226.676 61.4068V61.4775C226.695 62.7386 226.491 63.9885 226.078 65.128C225.694 66.1513 225.141 67.0488 224.456 67.7539C223.739 68.481 222.923 69.0245 222.051 69.3556C221.096 69.7282 220.101 69.912 219.104 69.9008H215.347V77.8375H212.058V53.1587H219.5C220.512 53.1408 221.518 53.3359 222.483 53.7364C223.318 54.0873 224.089 54.6571 224.749 55.4109ZM223.033 63.3219C223.223 62.7695 223.315 62.1682 223.302 61.5629L223.299 61.4972C223.332 60.8695 223.249 60.2407 223.056 59.6644C222.862 59.0881 222.566 58.5815 222.19 58.1878C221.324 57.3906 220.278 56.9975 219.218 57.072H215.347V65.9868H219.218C220.297 66.0681 221.36 65.629 222.207 64.753C222.562 64.3636 222.844 63.8743 223.033 63.3219ZM230.232 53.1587V77.8375H233.527V53.1587H230.232ZM237.217 57.1772V53.1587H252.533V57.1772H246.547V77.8375H243.203V57.1772H237.217ZM263.214 52.9816H260.141L251.835 77.8377H255.228L257.174 71.8771L258.389 68.0358L261.623 58.1619L264.886 68.0365L266.096 71.8777L268.014 77.8384H271.52L263.214 52.9816ZM278.153 53.1615V73.925H288.075V77.8375H274.864V53.1615H278.153Z" fill="#D9D9D9" fill-opacity="0.53"/>
<path d="M163.848 64.0731H160.36V52.7354L156.874 66.927H160.36V78.2647L163.848 64.0731Z" fill="#D9D9D9" fill-opacity="0.57"/>
</svg>
