<svg width="339" height="157" viewBox="0 0 339 157" fill="none" xmlns="http://www.w3.org/2000/svg">
<g clip-path="url(#clip0_222_50)">
<path fill-rule="evenodd" clip-rule="evenodd" d="M59.9537 73.4922L76.3972 94.6248L92.6652 73.7177L106.004 90.8598L90.5063 110.777L86.5194 105.79L98.1363 90.8598L92.6652 83.8284L76.3972 104.735L59.9537 83.6029L54.5492 90.5485L66.3428 105.705L62.356 110.692L46.6819 90.5485L59.9537 73.4922Z" fill="#D9D9D9" fill-opacity="0.38"/>
<path fill-rule="evenodd" clip-rule="evenodd" d="M92.7319 83.6029L76.2883 62.4701L60.0203 83.3771L46.6819 66.2351L62.1794 46.3184L66.1661 51.3055L54.5492 66.2351L60.0203 73.2664L76.2883 52.3593L92.7319 73.4919L98.1362 66.5463L86.3427 51.3896L90.3294 46.4024L106.004 66.5463L92.7319 83.6029Z" fill="#D9D9D9" fill-opacity="0.38"/>
<path fill-rule="evenodd" clip-rule="evenodd" d="M73.8337 110.28V96.9658H79.2035V110.28H73.8337Z" fill="#D9D9D9" fill-opacity="0.38"/>
<path fill-rule="evenodd" clip-rule="evenodd" d="M73.8337 60.1298V46.8154H79.2035V60.1298H73.8337Z" fill="#D9D9D9" fill-opacity="0.38"/>
<path d="M131.747 62.0381H126.396V96.0503H131.747V62.0381Z" fill="#D9D9D9" fill-opacity="0.38"/>
<path d="M158.888 71.0137C156.456 71.0137 154.136 72.3362 152.976 75.2179C151.779 72.3362 149.534 71.0137 146.914 71.0137C144.557 71.0137 142.761 72.1472 141.826 74.1786L141.265 71.4858H136.4V96.0503H141.639V82.3038C141.639 78.6662 143.135 76.9184 145.343 76.9184C147.438 76.9184 148.86 78.5717 148.86 82.5873V96.0503H153.912V82.4454C153.986 78.6191 155.558 76.9184 157.616 76.9184C159.749 76.9184 161.133 78.5717 161.133 82.2564V96.0977H166.409V80.9339C166.409 74.1314 162.779 71.0137 158.888 71.0137Z" fill="#D9D9D9" fill-opacity="0.38"/>
<path d="M193.053 71.0137C190.621 71.0137 188.301 72.3362 187.141 75.2179C185.944 72.3362 183.699 71.0137 181.079 71.0137C178.722 71.0137 176.926 72.1472 175.991 74.1786L175.429 71.4858H170.565V96.0503H175.804V82.3038C175.804 78.6662 177.3 76.9184 179.508 76.9184C181.603 76.9184 183.025 78.5717 183.025 82.5873V96.0503H188.077V82.4454C188.151 78.6191 189.723 76.9184 191.781 76.9184C193.914 76.9184 195.298 78.5717 195.298 82.2564V96.0977H200.574V80.9339C200.574 74.1314 196.944 71.0137 193.053 71.0137Z" fill="#D9D9D9" fill-opacity="0.38"/>
<path d="M217.49 71.4854V84.9486C217.49 88.5859 216.143 90.7591 213.561 90.8062C211.091 90.9007 209.52 89.0584 209.52 85.2321V71.4854H204.543V86.0825C204.543 92.3651 207.424 96.5222 212.401 96.5222C214.721 96.5222 216.405 95.1997 217.415 93.3573L217.677 96.0498H222.466V71.4854H217.49Z" fill="#D9D9D9" fill-opacity="0.38"/>
<path d="M237.839 71.0137C234.92 71.0137 232.975 72.3836 231.964 74.4149L231.665 71.4858H226.801V96.0503H232.039V83.0597C232.039 79.0915 233.536 76.6823 236.305 76.6823C238.849 76.6823 240.383 78.7607 240.383 82.8233V96.0503H245.659V81.4534C245.659 75.1705 242.815 71.0137 237.839 71.0137Z" fill="#D9D9D9" fill-opacity="0.38"/>
<path d="M268.567 83.3902C268.567 75.8793 264.713 71.0137 258.913 71.0137C253.114 71.0137 249.223 76.1154 249.223 83.7682C249.223 91.4681 253.114 96.5701 258.952 96.5701C263.852 96.5701 267.558 93.1215 268.418 88.0198H263.143C262.543 90.1453 261.01 91.232 259.101 91.232C256.595 91.232 254.574 89.2007 254.498 85.5632H268.567V83.3902ZM258.913 76.1627C261.197 76.1627 263.106 77.8161 263.33 81.2173H254.537C254.762 77.8161 256.67 76.1627 258.913 76.1627Z" fill="#D9D9D9" fill-opacity="0.38"/>
<path d="M270.612 71.4858V77.2491H273.606V96.0502H278.881V77.2491H283.335V71.4858H278.881V68.9822C278.881 67.2344 279.257 65.9117 281.39 65.9117H283.335V60.5264H280.229C275.327 60.5264 273.606 63.5497 273.606 68.3209V71.4858H270.612Z" fill="#D9D9D9" fill-opacity="0.38"/>
<path d="M286.796 67.7067H292.108L292.184 60.5264H286.869L286.796 67.7067ZM286.869 96.0502H292.108V71.4858H286.869V96.0502Z" fill="#D9D9D9" fill-opacity="0.38"/>
</g>
<defs>
<clipPath id="clip0_222_50">
<rect width="246.748" height="66.938" fill="white" transform="translate(46.6819 45.0312)"/>
</clipPath>
</defs>
</svg>
