<svg width="355" height="155" viewBox="0 0 355 155" fill="none" xmlns="http://www.w3.org/2000/svg">
<path fill-rule="evenodd" clip-rule="evenodd" d="M164.709 89.2151H169.063L160.041 64.3564H156.023L146.978 89.2151H151.164L153.208 83.7198H162.664L164.709 89.2151ZM161.052 79.3178H154.821L157.949 70.8589L161.052 79.3178ZM137.377 64.3566L129.75 83.9211L122.123 64.3566H117.335V89.2151H121.425V73.6498L127.464 89.2151H131.915L137.954 73.6498V89.2151H142.045V64.3566H137.377ZM187.998 68.7297V74.5705H198.272V78.9438H187.998V89.1863H183.909V64.3564H198.49V68.7297H187.998ZM217.977 89.2151H222.332L213.286 64.3564H209.268L200.221 89.2151H204.407L206.454 83.7198H215.933L217.977 89.2151ZM214.32 79.3178H208.089L211.217 70.8589L214.32 79.3178ZM239.679 83.9211L247.306 64.3564H251.974V89.2151H247.883V73.6496L241.845 89.2151H237.394L231.356 73.6496V89.2151H227.265V64.3564H232.053L239.679 83.9211ZM259.313 89.2151H263.402V64.3564H259.313V89.2151ZM274.831 84.8131H285.321V89.1863H270.741V64.3564H274.831V84.8131ZM305.964 64.3564H301.513L295.859 75.5199L290.157 64.3564H285.658L293.79 80.4398V89.1863H297.88V80.4398L305.964 64.3564Z" fill="#D9D9D9" fill-opacity="0.51"/>
<path fill-rule="evenodd" clip-rule="evenodd" d="M64.777 88.1553L86.9718 103.341C87.1883 103.485 87.5011 103.283 87.5011 102.967V51.1782C87.5011 50.8329 87.2123 50.6315 86.9718 50.8042L64.776 65.9906L42.5813 50.8049C42.3407 50.6322 42.052 50.8336 42.052 51.1789V102.968C42.052 103.313 42.3407 103.514 42.5813 103.342L64.777 88.1553ZM69.0839 85.2085L80.4275 77.4472C80.668 77.2746 80.668 76.8718 80.4275 76.6992L69.0829 68.9372L83.3147 59.2054V94.9396L69.0839 85.2085ZM64.7725 71.8847L72.3674 77.0732L64.7796 82.2653L57.1856 77.0725L64.7725 71.8847ZM60.4637 68.9409L49.1256 76.6985C48.885 76.8711 48.885 77.2738 49.1256 77.4465L60.4744 85.2114L46.2144 94.9692V59.2061L60.4637 68.9409Z" fill="#D9D9D9" fill-opacity="0.51"/>
</svg>
