<?xml version="1.0" encoding="iso-8859-1"?>
<!-- Generator: Adobe Illustrator 21.1.0, SVG Export Plug-In . SVG Version: 6.00 Build 0)  -->
<svg version="1.1" id="Layer_1" xmlns="http://www.w3.org/2000/svg" xmlns:xlink="http://www.w3.org/1999/xlink" x="0px" y="0px"
	 viewBox="0 0 100.354 100.352" style="enable-background:new 0 0 100.354 100.352;" xml:space="preserve">
<path d="M49.806,62.938L80.66,28.422c0.395-0.441,0.492-1.072,0.251-1.612c-0.241-0.54-0.777-0.887-1.369-0.887H63.835L75.71,10.86
	c0.513-0.65,0.401-1.594-0.249-2.106c-0.65-0.514-1.593-0.402-2.106,0.249l-13.339,16.92H17.076c-0.592,0-1.129,0.349-1.37,0.89
	c-0.241,0.541-0.141,1.173,0.255,1.614l30.845,34.282v25.534c0,0.011,0.003,0.022,0.003,0.033H36.521c-0.829,0-1.5,0.672-1.5,1.5
	s0.671,1.5,1.5,1.5h23.565c0.828,0,1.5-0.672,1.5-1.5s-0.672-1.5-1.5-1.5H49.803c0-0.011,0.003-0.022,0.003-0.033V62.938z
	 M59.067,48.076l-10.66,11.925l-10.73-11.925H59.067z M76.189,28.922l-14.44,16.154H48.735L61.47,28.922H76.189z M57.65,28.922
	L44.915,45.076h-9.937L20.443,28.922H57.65z"/>
</svg>
